<svg xmlns="http://www.w3.org/2000/svg" viewBox="0 0 445.39 445.39"><defs><style>.cls-1{fill:none;stroke:#9f202a;stroke-miterlimit:10;stroke-width:6px;}.cls-2{fill:#fff;}</style></defs><title>Zasób 10</title><g id="Warstwa_2" data-name="Warstwa 2"><g id="Warstwa_1-2" data-name="Warstwa 1"><rect class="cls-1" x="68.22" y="68.22" width="308.95" height="308.95" transform="translate(-92.23 225.6) rotate(-45.53)"/><path class="cls-2" d="M272.46,208.2a52.94,52.94,0,0,0-7.72-18.8c-5.82-8.81-17-19.3-36.89-19.32h-.61c-19.95,0-31.09,10.46-36.95,19.25a53.21,53.21,0,0,0-7.76,18.79,38.51,38.51,0,0,0,.42,15.68,67.57,67.57,0,0,0,4.71,13.83,89.36,89.36,0,0,0,8,14l.11.15.12.14c3.4,4,4.78,10.85,5.08,13.53a16.42,16.42,0,0,0,2.32,8.86,107.16,107.16,0,0,0,.74,21c.75,4.55,1.93,7.86,3.58,10.12l.88,1.2,1.4.56a45.3,45.3,0,0,0,16.46,2.8h0a64.65,64.65,0,0,0,18.16-2.71l1.76-.51,1-1.47c1.64-2.29,2.79-5.61,3.52-10.16a107.64,107.64,0,0,0,.75-20.8,16.48,16.48,0,0,0,2.35-8.87c.31-2.69,1.71-9.48,5.11-13.53l.12-.14.11-.15a89.87,89.87,0,0,0,8-14A68.43,68.43,0,0,0,272,223.88,38.69,38.69,0,0,0,272.46,208.2Zm-60.65,1.62.59-.23a6.11,6.11,0,0,0-.23,1.07Zm3.42-1.09,1.68-.4c-.65,1-.82,1.92.09,2.68,2.63,2.19,4.16-.93,3.31-3.28.27,0,.69-.07,1.23-.14-1.11,2.82,4,6.3,5,1.42a3.55,3.55,0,0,0-.42-2.1c.87-.13,1.55-.23,1.78-.24a8,8,0,0,0,1-.12c-1.7,2.5-2.06,5.51,1,5.51a2.78,2.78,0,0,0,2.21-1.32c.05.12.1.24.16.36,1.6,3,5.37-.44,5.11-3.95a2.56,2.56,0,0,1,.87.11c-2.07,2.52-1.12,4.08.49,4.56l-11.69,33.44-14.21-33C215.52,213.27,215.73,210.79,215.23,208.74Zm17.43-1.27a4.26,4.26,0,0,0-.94-1.28,7.4,7.4,0,0,1,2.29.11A5.39,5.39,0,0,0,232.66,207.46Zm18.12,38.24a32.75,32.75,0,0,0-6,12.49,42.25,42.25,0,0,0-1.29,6.76l0,.38,0,.39a6.5,6.5,0,0,1-1.25,4L241,271.09a60.79,60.79,0,0,1-8.94,1.79l-.32-23.15a4.32,4.32,0,0,0-.77-2.41l13.48-38.55-1.18-.4c0-.13-.05-.26-.1-.4-.82-2.58-3.7-3.24-6.36-2.72a4.16,4.16,0,0,0-.7-.92c-1.89-1.9-4.33-.92-6.11.9a9.68,9.68,0,0,0-4.95.11,2.74,2.74,0,0,0-2.95-1,15.57,15.57,0,0,0-3,1.84,4.53,4.53,0,0,0-3.94-.29,2.87,2.87,0,0,0-1,.63c-2.57-3.06-5.06,1.24-5.28,3.73l-1.38.57,15.87,36.86a4.26,4.26,0,0,0-.6,2.19l.33,23.39a39.52,39.52,0,0,1-9.19-1.5l0-.49-1.28-1.52a6.73,6.73,0,0,1-1.22-4l0-.39,0-.39a43.61,43.61,0,0,0-1.27-6.75,33,33,0,0,0-6-12.51,79.72,79.72,0,0,1-6.89-12.18c-2.9-6.34-6-15.57-4.42-23.45l0-.08v-.11a44,44,0,0,1,6.41-15.24c6.44-9.51,15.85-14.32,28-14.31h.61c12.1,0,21.49,4.85,27.92,14.36a43.44,43.44,0,0,1,6.37,15.25l0,.19C265.13,224.88,252,244,250.78,245.71Z"/><path class="cls-2" d="M184.57,253.94,161,277.24a2.86,2.86,0,0,0,0,4.12,3,3,0,0,0,4.23,0L188.83,258a2.86,2.86,0,0,0,0-4.11A3,3,0,0,0,184.57,253.94Z"/><path class="cls-2" d="M271.15,176.79l23.6-23.29a2.86,2.86,0,0,0,0-4.12,3.06,3.06,0,0,0-4.23,0l-23.6,23.3a2.86,2.86,0,0,0,0,4.12A3.06,3.06,0,0,0,271.15,176.79Z"/><path class="cls-2" d="M182.58,179a3,3,0,0,0,4.21-.18,2.85,2.85,0,0,0-.19-4.11l-24.82-22.07a3,3,0,0,0-4.22.18,2.86,2.86,0,0,0,.2,4.11Z"/><path class="cls-2" d="M273.16,251.7a3,3,0,0,0-4.23.18,2.86,2.86,0,0,0,.19,4.11l24.82,22.06a3,3,0,0,0,4.22-.18,2.85,2.85,0,0,0-.19-4.12Z"/><path class="cls-2" d="M172.25,215.36a3,3,0,0,0-3-2.91H135.65a2.91,2.91,0,1,0,0,5.82h33.61A3,3,0,0,0,172.25,215.36Z"/><path class="cls-2" d="M320.07,212.45h-33.6a2.91,2.91,0,1,0,0,5.82h33.6a2.91,2.91,0,1,0,0-5.82Z"/><path class="cls-2" d="M227.84,163.36a2.94,2.94,0,0,0,3-2.91V127.73a3,3,0,0,0-6,0v32.72A3,3,0,0,0,227.84,163.36Z"/></g></g></svg>